<?xml version="1.0" standalone="no"?>
<!DOCTYPE svg PUBLIC "-//W3C//DTD SVG 20010904//EN"
 "http://www.w3.org/TR/2001/REC-SVG-20010904/DTD/svg10.dtd">
<svg version="1.0" xmlns="http://www.w3.org/2000/svg"
 width="480.000000pt" height="480.000000pt" viewBox="0 0 480.000000 480.000000"
 preserveAspectRatio="xMidYMid meet">
<metadata>
Created by potrace 1.14, written by Peter Selinger 2001-2017
</metadata>
<g transform="translate(0.000000,480.000000) scale(0.100000,-0.100000)"
fill="#000000" stroke="none">
<path d="M2842 4737 c-7 -18 -12 -38 -12 -43 0 -9 60 -40 72 -37 3 1 12 -4 18
-12 7 -8 16 -15 21 -15 12 0 105 -65 164 -115 78 -65 225 -230 225 -253 0 -5
7 -15 15 -22 8 -7 21 -24 29 -39 7 -14 35 -66 61 -115 26 -49 57 -112 67 -140
29 -74 79 -227 84 -255 7 -37 13 -41 37 -32 24 9 31 11 48 11 6 0 8 8 5 18 -3
9 -7 29 -10 43 -21 122 -158 433 -251 570 -129 188 -304 345 -484 434 -39 19
-72 35 -74 35 -2 0 -8 -15 -15 -33z"/>
<path d="M1865 4515 c-63 -14 -91 -29 -133 -69 -48 -44 -65 -82 -68 -151 -2
-61 22 -153 55 -205 14 -23 105 -152 123 -175 5 -5 54 -71 110 -145 93 -123
429 -559 450 -584 107 -127 307 -396 308 -414 0 -36 -17 -60 -50 -67 -38 -8
-75 13 -118 70 -18 24 -43 54 -55 67 -13 12 -45 50 -72 83 -28 33 -52 62 -55
65 -3 3 -35 39 -70 80 -35 41 -69 80 -74 86 -6 7 -27 31 -46 55 -19 24 -78 93
-130 154 -52 60 -147 171 -210 245 -63 74 -129 151 -147 170 -18 19 -33 38
-33 41 0 3 -15 21 -32 40 -18 19 -52 57 -75 84 -23 28 -51 61 -63 75 -12 14
-38 45 -58 69 -41 49 -111 121 -117 121 -2 0 -24 13 -48 30 -177 119 -426 4
-427 -198 0 -84 17 -115 175 -317 38 -49 74 -95 80 -101 5 -6 21 -26 35 -44
14 -18 30 -38 35 -44 9 -10 64 -77 120 -145 11 -14 30 -35 43 -48 12 -13 22
-26 22 -29 0 -3 6 -11 13 -18 6 -7 32 -37 57 -66 184 -220 597 -705 635 -746
5 -6 28 -33 50 -59 22 -27 47 -55 56 -64 8 -9 37 -43 65 -76 27 -33 55 -64 62
-68 7 -5 12 -23 10 -44 -3 -41 -28 -63 -74 -63 -26 0 -40 10 -75 52 -24 28
-55 63 -69 78 -34 36 -171 188 -193 214 -10 12 -60 65 -110 120 -51 54 -103
111 -117 126 -40 43 -212 229 -250 270 -19 21 -78 84 -130 140 -169 184 -186
199 -289 251 -58 29 -74 32 -145 32 -90 0 -96 -1 -146 -27 -94 -50 -133 -105
-136 -196 -4 -105 41 -195 175 -344 25 -29 74 -83 109 -122 66 -75 85 -95 337
-359 212 -223 374 -391 520 -540 206 -209 235 -243 235 -274 0 -16 -6 -34 -14
-40 -29 -25 -72 0 -178 102 -95 92 -274 261 -339 319 -67 61 -206 186 -233
211 -70 65 -135 101 -197 112 -17 3 -34 6 -37 7 -21 6 -98 -16 -126 -35 -67
-45 -106 -106 -106 -167 0 -53 58 -164 125 -236 5 -6 26 -30 45 -54 88 -106
398 -424 552 -564 29 -26 96 -88 148 -137 53 -48 107 -97 120 -108 14 -12 41
-36 60 -54 19 -18 105 -94 190 -168 85 -73 160 -138 166 -144 6 -5 32 -28 59
-50 26 -22 53 -45 59 -50 65 -60 275 -231 323 -263 77 -52 176 -102 268 -135
67 -24 151 -42 158 -35 2 1 10 -2 18 -8 19 -15 394 -10 394 6 0 1 12 3 27 5
16 2 37 6 47 10 11 3 28 7 38 9 73 15 353 129 361 148 2 5 8 8 13 8 6 0 35 16
65 35 30 19 59 35 65 35 5 0 12 7 15 15 3 8 14 17 25 20 10 4 25 12 31 19 7 6
31 25 53 41 22 17 77 68 123 115 108 111 116 119 138 155 10 17 27 39 36 49
51 57 177 355 204 481 39 188 43 234 43 420 0 152 -8 262 -24 346 -3 13 -8 38
-11 54 -2 17 -9 46 -14 65 -5 19 -11 53 -15 75 -3 23 -7 50 -9 60 -17 89 -26
226 -26 395 -1 187 7 284 35 425 16 78 95 284 146 382 57 108 56 198 -3 260
-23 25 -98 62 -143 72 -40 8 -162 8 -200 -1 -35 -7 -111 -34 -128 -45 -7 -4
-18 -8 -26 -10 -8 -1 -17 -6 -20 -10 -3 -5 -22 -19 -41 -30 -39 -24 -150 -136
-150 -151 0 -6 -3 -12 -7 -14 -11 -5 -41 -60 -59 -110 -20 -55 -26 -97 -25
-178 0 -36 0 -92 1 -125 0 -33 -1 -67 -3 -75 -24 -99 -57 -155 -121 -207 -122
-99 -247 -108 -354 -27 -29 23 -121 129 -205 236 -15 20 -41 51 -57 69 -16 19
-30 37 -30 41 0 4 -6 13 -13 20 -12 11 -302 382 -367 468 -14 19 -65 86 -114
149 -50 64 -123 159 -163 211 -40 52 -76 100 -80 105 -5 6 -35 46 -68 90 -33
44 -62 82 -66 85 -3 3 -18 23 -34 45 -87 120 -222 224 -315 240 -18 3 -36 7
-39 9 -3 2 -28 -2 -56 -9z"/>
<path d="M2607 4405 l-15 -44 26 -9 c15 -5 29 -9 32 -8 3 0 19 -9 37 -22 17
-12 36 -22 41 -22 6 0 17 -6 24 -12 7 -7 31 -25 53 -41 59 -40 141 -124 190
-192 47 -65 108 -175 99 -175 -4 0 -2 -6 4 -12 20 -27 66 -182 77 -263 1 -11
3 -23 4 -27 0 -5 20 -8 42 -8 l41 0 -6 61 c-4 34 -11 69 -15 78 -5 9 -9 18 -8
21 2 11 -27 106 -36 118 -5 6 -6 12 -3 12 4 0 1 12 -7 28 -8 15 -27 52 -42 82
-62 123 -135 216 -246 315 -46 41 -112 85 -127 85 -7 0 -12 4 -12 9 0 5 -8 11
-17 14 -10 3 -41 17 -70 30 l-52 25 -14 -43z"/>
<path d="M409 1759 c-7 -4 -7 -18 0 -45 6 -21 11 -43 12 -49 1 -5 22 -52 46
-104 129 -279 318 -457 583 -553 94 -33 98 -33 109 9 12 42 6 52 -32 59 -15 2
-39 9 -54 16 -16 6 -34 12 -40 14 -7 1 -47 20 -88 43 -117 63 -190 126 -283
244 -29 37 -49 67 -46 67 4 0 0 8 -8 18 -18 19 -78 136 -83 161 -2 9 -13 39
-23 68 -11 28 -17 55 -14 58 8 8 -65 3 -79 -6z"/>
<path d="M40 1621 c-8 -6 -17 -8 -21 -5 -44 27 23 -143 125 -316 90 -154 149
-232 257 -339 135 -135 204 -184 361 -262 54 -27 167 -69 186 -69 7 0 32 56
32 72 0 3 -28 15 -62 27 -115 40 -243 111 -338 186 -55 43 -199 193 -240 250
-74 101 -130 187 -130 200 0 8 -4 15 -9 17 -10 4 -97 185 -107 222 -6 27 -27
33 -54 17z"/>
</g>
</svg>
